name analog
datacolumns 19
datarows 28
range 0.0 0.0135
endheader
time	ground_force_vx	ground_force_vy	ground_force_vz	ground_force_px	ground_force_py	ground_force_pz	l_ground_force_vx	l_ground_force_vy	l_ground_force_vz	l_ground_force_px	l_ground_force_py	l_ground_force_pz	ground_torque_x	ground_torque_y	ground_torque_z	l_ground_torque_x	l_ground_torque_y	l_ground_torque_z
0.0	-0.0	-0.0	-0.0	-23.141094207763672	27.688386917114254	-391.0937194824219	32.29523468017578	-21.616853713989254	-394.0698852539063	-0.0	-0.0	-0.0	-0.0	-0.0	-0.0	113351.53125	-24585.435546875	9806.6103515625
0.0005	-0.0	-0.0	-0.0	-22.96678352355957	27.62616539001465	-393.0723876953125	32.13994598388672	-21.546113967895508	-392.8831176757813	-0.0	-0.0	-0.0	-0.0	-0.0	-0.0	112907.7734375	-24634.953125	9788.7021484375
0.001	-0.0	-0.0	-0.0	-23.08275032043457	28.04497528076172	-392.2265930175781	31.97551727294922	-21.404720306396484	-391.8701477050781	-0.0	-0.0	-0.0	-0.0	-0.0	-0.0	112354.4453125	-24580.3828125	9757.478515625
0.0015	-0.0	-0.0	-0.0	-23.090694427490234	27.572359085083008	-396.2678833007813	31.665550231933597	-21.57714462280273	-390.5952758789063	-0.0	-0.0	-0.0	-0.0	-0.0	-0.0	112181.6875	-24292.208984375	9656.4482421875
0.002	-0.0	-0.0	-0.0	-23.43526268005371	28.14602851867676	-395.776123046875	31.288063049316406	-21.20127487182617	-388.4840087890625	-0.0	-0.0	-0.0	-0.0	-0.0	-0.0	111611.28125	-24174.212890625	9548.0
0.0025	-0.0	-0.0	-0.0	-23.22962951660156	28.513996124267575	-398.4945068359375	30.716827392578125	-21.52370834350586	-388.3624877929688	-0.0	-0.0	-0.0	-0.0	-0.0	-0.0	111252.8984375	-23801.251953125	9360.5517578125
0.003	-0.0	-0.0	-0.0	-23.815448760986328	28.4053897857666	-398.47991943359375	29.926403045654297	-21.63106155395508	-387.0876770019531	-0.0	-0.0	-0.0	-0.0	-0.0	-0.0	111008.140625	-23822.412109375	9230.984375
0.0035	-0.0	-0.0	-0.0	-23.55157470703125	28.51808738708496	-401.320556640625	29.714332580566406	-21.55049133300781	-386.4192810058594	-0.0	-0.0	-0.0	-0.0	-0.0	-0.0	110656.0390625	-23715.51171875	9180.583984375
0.004	-0.0	-0.0	-0.0	-23.966703414916992	28.57284927368164	-401.075927734375	29.513586044311523	-21.52350425720215	-386.0550231933594	-0.0	-0.0	-0.0	-0.0	-0.0	-0.0	110172.046875	-23382.595703125	9128.974609375
0.0045000000000000005	-0.0	-0.0	-0.0	-24.16915512084961	28.785675048828125	-401.6065368652344	29.243793487548828	-21.54692268371582	-384.52288818359375	-0.0	-0.0	-0.0	-0.0	-0.0	-0.0	110146.71875	-23122.462890625	8945.400390625
0.005	-0.0	-0.0	-0.0	-24.289440155029297	28.405109405517575	-402.4898376464844	29.066410064697266	-21.84604835510254	-383.6103515625	-0.0	-0.0	-0.0	-0.0	-0.0	-0.0	109967.28125	-23054.255859375	8856.1689453125
0.0055	-0.0	-0.0	-0.0	-24.00085830688477	28.690305709838867	-402.13714599609375	28.47616195678711	-22.43035316467285	-384.3083801269531	-0.0	-0.0	-0.0	-0.0	-0.0	-0.0	109824.9375	-22800.36328125	8813.3837890625
0.006	-0.0	-0.0	-0.0	-24.11762046813965	28.67550277709961	-401.8465881347656	28.07754898071289	-22.141477584838867	-384.9806518554688	-0.0	-0.0	-0.0	-0.0	-0.0	-0.0	109700.2421875	-22547.142578125	8685.4033203125
0.006500000000000001	-0.0	-0.0	-0.0	-24.354469299316406	28.137510299682617	-403.4292602539063	27.82139778137207	-22.321197509765625	-385.3304138183594	-0.0	-0.0	-0.0	-0.0	-0.0	-0.0	109949.3515625	-22118.0703125	8438.7041015625
0.007	-0.0	-0.0	-0.0	-24.560686111450195	28.429689407348636	-403.6731567382813	27.76342391967773	-22.406293869018555	-385.800537109375	-0.0	-0.0	-0.0	-0.0	-0.0	-0.0	109783.7578125	-21884.44140625	8407.95703125
0.0075	-0.0	-0.0	-0.0	-24.59425544738769	28.279321670532227	-403.5968933105469	26.99864196777344	-22.613317489624023	-386.4874267578125	-0.0	-0.0	-0.0	-0.0	-0.0	-0.0	109950.421875	-21830.33203125	8425.8330078125
0.008	-0.0	-0.0	-0.0	-24.558086395263672	28.37408447265625	-403.7951965332031	26.82118225097656	-22.46124649047852	-386.1729736328125	-0.0	-0.0	-0.0	-0.0	-0.0	-0.0	109964.390625	-21434.998046875	8259.0146484375
0.0085	-0.0	-0.0	-0.0	-24.56610870361328	28.49114799499512	-404.3807067871094	26.995813369750977	-22.78699493408203	-385.93255615234375	-0.0	-0.0	-0.0	-0.0	-0.0	-0.0	110002.734375	-21154.560546875	8260.935546875
0.009000000000000001	-0.0	-0.0	-0.0	-25.1497802734375	28.699989318847656	-403.92681884765625	26.588117599487305	-23.084945678710938	-385.8335876464844	-0.0	-0.0	-0.0	-0.0	-0.0	-0.0	110062.4296875	-20946.189453125	8229.9853515625
0.0095	-0.0	-0.0	-0.0	-25.04002571105957	28.638959884643555	-402.6251220703125	26.851503372192383	-22.99647521972656	-387.7877197265625	-0.0	-0.0	-0.0	-0.0	-0.0	-0.0	110190.90625	-20734.912109375	8266.6103515625
0.01	-0.0	-0.0	-0.0	-25.366289138793945	28.81959724426269	-405.767333984375	26.848981857299805	-22.90556907653809	-387.5582885742188	-0.0	-0.0	-0.0	-0.0	-0.0	-0.0	110489.484375	-20500.84375	8249.7197265625
0.0105	-0.0	-0.0	-0.0	-25.807876586914062	28.641307830810547	-403.5552368164063	27.14550018310547	-23.523792266845703	-388.9642028808594	-0.0	-0.0	-0.0	-0.0	-0.0	-0.0	110747.1796875	-20233.11328125	8142.06787109375
0.011	-0.0	-0.0	-0.0	-25.72306632995605	28.697885513305664	-405.0723876953125	26.58516502380371	-23.821149826049805	-389.5427551269531	-0.0	-0.0	-0.0	-0.0	-0.0	-0.0	110550.1484375	-20224.234375	8131.41845703125
0.0115	-0.0	-0.0	-0.0	-26.07787704467773	28.58048439025879	-403.2111511230469	26.93779563903809	-23.937305450439453	-389.9855651855469	-0.0	-0.0	-0.0	-0.0	-0.0	-0.0	110682.2734375	-19740.748046875	8238.7138671875
0.012	-0.0	-0.0	-0.0	-26.22407341003418	28.550167083740234	-402.7302551269531	26.556835174560547	-24.432937622070312	-390.1214599609375	-0.0	-0.0	-0.0	-0.0	-0.0	-0.0	110799.8828125	-19391.57421875	8160.86181640625
0.0125	-0.0	-0.0	-0.0	-26.55439758300781	28.430803298950195	-402.3849182128906	26.19795608520508	-24.34670066833496	-390.3438720703125	-0.0	-0.0	-0.0	-0.0	-0.0	-0.0	110862.6796875	-18967.197265625	8179.51416015625
0.013000000000000001	-0.0	-0.0	-0.0	-26.527502059936523	28.045806884765625	-400.8592529296875	25.84684944152832	-24.525203704833984	-390.9310302734375	-0.0	-0.0	-0.0	-0.0	-0.0	-0.0	110740.7890625	-18773.58984375	8010.740234375
0.0135	-0.0	-0.0	-0.0	-26.761573791503903	28.16362953186035	-400.15911865234375	25.873403549194336	-24.84668731689453	-390.8125	-0.0	-0.0	-0.0	-0.0	-0.0	-0.0	110910.2578125	-18344.04296875	7972.1337890625
